{"title":"Lost.Girl.S03E03.HDTV.DivX-Atilla82","uid":8053491,"size":367742120,"categoryP":"video","categoryS":"tv_shows","magnet":"?xt=urn:btih:c066023fcdb2504d266c2ee09beb554f21413d5e&amp;dn=Lost.Girl.S03E03.HDTV.DivX-Atilla82&amp;tr=udp%3A%2F%2Ftracker.openbittorrent.com%3A80&amp;tr=udp%3A%2F%2Fopen.demonii.com%3A1337&amp;tr=udp%3A%2F%2Ftracker.coppersurfer.tk%3A6969&amp;tr=udp%3A%2F%2Fexodus.desync.com%3A6969","seeders":1,"leechers":0,"uploader":"Atilla82","files":2,"time":1358905624,"description":"Lost Girl S03E03 HDTV DivX Atilla82\n\n &lt;a href=&quot;\nhttp://www.imdb.com/title/tt1429449/&quot; rel=&quot;nofollow&quot; target=&quot;_NEW&quot;&gt;\nhttp://www.imdb.com/title/tt1429449/&lt;/a&gt;\n\n\nGeneral\nComplete name : Lost.Girl.S03E03.HDTV.DivX-Atilla82.avi\nFormat : AVI\nFormat/Info : Audio Video Interleave\nFile size : 351 MiB\nDuration : 43mn 58s\nOverall bit rate : 1 114 Kbps\nWriting application : VirtualDubMod 1.5.10.2 (build 2540/release)\nWriting library : VirtualDubMod build 2540/release\n\nVideo\nID : 0\nFormat : MPEG-4 Visual\nFormat settings, BVOP : 1\nFormat settings, QPel : No\nFormat settings, GMC : No warppoints\nFormat settings, Matrix : Default (H.263)\nMuxing mode : Packed bitstream\nCodec ID : DX50\nCodec ID/Hint : DivX 5\nDuration : 43mn 58s\nBit rate : 977 Kbps\nWidth : 680 pixels\nHeight : 382 pixels\nDisplay aspect ratio : 16:9\nFrame rate : 23.976 fps\nColor space : YUV\nChroma subsampling : 4:2:0\nBit depth : 8 bits\nScan type : Progressive\nCompression mode : Lossy\nBits/(Pixel*Frame) : 0.157\nStream size : 307 MiB (88%)\nWriting library : DivX 2682\n\nAudio\nID : 1\nFormat : MPEG Audio\nFormat version : Version 1\nFormat profile : Layer 3\nCodec ID : 55\nCodec ID/Hint : MP3\nDuration : 43mn 58s\nBit rate mode : Constant\nBit rate : 128 Kbps\nChannel(s) : 2 channels\nSampling rate : 48.0 KHz\nCompression mode : Lossy\nStream size : 40.3 MiB (11%)\nAlignment : Aligned on interleaves\nInterleave, duration : 42 ms (1.00 video frame)\nInterleave, preload duration : 504 ms\n\nSCREENS\n","torrent":{"xt":"urn:btih:c066023fcdb2504d266c2ee09beb554f21413d5e","amp;dn":"Lost.Girl.S03E03.HDTV.DivX-Atilla82","amp;tr":["udp%3A%2F%2Ftracker.openbittorrent.com%3A80","udp%3A%2F%2Fopen.demonii.com%3A1337","udp%3A%2F%2Ftracker.coppersurfer.tk%3A6969","udp%3A%2F%2Fexodus.desync.com%3A6969"],"infoHash":"c066023fcdb2504d266c2ee09beb554f21413d5e","infoHashBuffer":{"type":"Buffer","data":[192,102,2,63,205,178,80,77,38,108,46,224,155,235,85,79,33,65,61,94]},"announce":[],"urlList":[]}}